<svg width="16" height="16" viewBox="0 0 16 16" fill="none" xmlns="http://www.w3.org/2000/svg">
<path d="M7.49624 2.78263C7.65056 2.33868 7.72771 2.11671 7.84181 2.05519C7.94056 2.00195 8.05946 2.00195 8.15821 2.05519C8.2723 2.11671 8.34946 2.33868 8.50377 2.78263L9.52396 5.71755C9.56787 5.8439 9.58983 5.90708 9.62941 5.95413C9.66436 5.99569 9.70894 6.02808 9.75927 6.04848C9.81625 6.07158 9.88312 6.07294 10.0169 6.07567L13.1234 6.13897C13.5933 6.14855 13.8282 6.15334 13.922 6.24284C14.0032 6.3203 14.0399 6.43338 14.0198 6.54375C13.9965 6.67127 13.8093 6.81325 13.4347 7.09719L10.9587 8.97439C10.8521 9.0552 10.7988 9.09561 10.7663 9.14778C10.7376 9.19387 10.7205 9.24628 10.7167 9.30045C10.7123 9.36177 10.7317 9.42579 10.7704 9.55383L11.6702 12.5279C11.8063 12.9777 11.8744 13.2027 11.8182 13.3195C11.7696 13.4206 11.6734 13.4905 11.5622 13.5055C11.4338 13.5228 11.2409 13.3885 10.8551 13.1201L8.30464 11.3453C8.19484 11.2689 8.13994 11.2307 8.08027 11.2159C8.02756 11.2028 7.97245 11.2028 7.91975 11.2159C7.86008 11.2307 7.80518 11.2689 7.69538 11.3453L5.14493 13.1201C4.75914 13.3885 4.56625 13.5228 4.43778 13.5055C4.3266 13.4905 4.2304 13.4206 4.18181 13.3195C4.12567 13.2027 4.19372 12.9777 4.32982 12.5279L5.22958 9.55383C5.26832 9.42579 5.28768 9.36177 5.28332 9.30045C5.27947 9.24628 5.26244 9.19387 5.23372 9.14778C5.2012 9.09561 5.1479 9.0552 5.04131 8.97439L2.56528 7.0972C2.19075 6.81325 2.00349 6.67127 1.98023 6.54375C1.96011 6.43338 1.99686 6.3203 2.07801 6.24284C2.17177 6.15334 2.40672 6.14855 2.87663 6.13897L5.98316 6.07567C6.1169 6.07294 6.18377 6.07158 6.24074 6.04848C6.29107 6.02808 6.33565 5.99569 6.37061 5.95413C6.41018 5.90708 6.43214 5.8439 6.47606 5.71755L7.49624 2.78263Z" fill="#EBE100" stroke="#EBE100" stroke-width="1.33333" stroke-linecap="round" stroke-linejoin="round"/>
</svg>
